<?xml version="1.0" encoding="UTF-8" standalone="no"?>
<!DOCTYPE svg PUBLIC "-//W3C//DTD SVG 1.1//EN"
 "http://www.w3.org/Graphics/SVG/1.1/DTD/svg11.dtd">
<!-- Generated by graphviz version 2.40.1 (20161225.0304)
 -->
<!-- Title: models_diagram Pages: 1 -->
<svg width="920pt" height="288pt"
 viewBox="0.00 0.00 919.55 288.00" xmlns="http://www.w3.org/2000/svg" xmlns:xlink="http://www.w3.org/1999/xlink">
<g id="graph0" class="graph" transform="scale(1 1) rotate(0) translate(4 284)">
<title>models_diagram</title>
<polygon fill="transparent" stroke="transparent" points="-4,4 -4,-284 915.55,-284 915.55,4 -4,4"/>
<!-- _diagram_info -->
<g id="node1" class="node">
<title>_diagram_info</title>
<text text-anchor="start" x="8" y="-251.6" font-family="Times,serif" font-size="13.00" fill="#000000">Models diagram</text>
<text text-anchor="start" x="8" y="-238.6" font-family="Times,serif" font-size="13.00" fill="#000000">Date: Jul 19 2017 &#45; 19:41</text>
<text text-anchor="start" x="8" y="-225.6" font-family="Times,serif" font-size="13.00" fill="#000000">Migration version: 20170719233548</text>
<text text-anchor="start" x="8" y="-212.6" font-family="Times,serif" font-size="13.00" fill="#000000">Generated by RailRoady 1.5.3</text>
<text text-anchor="start" x="8" y="-199.6" font-family="Times,serif" font-size="13.00" fill="#000000">http://railroady.prestonlee.com</text>
</g>
<!-- ApplicationRecord -->
<g id="node2" class="node">
<title>ApplicationRecord</title>
<ellipse fill="none" stroke="#000000" cx="302.6877" cy="-229.5" rx="77.2916" ry="18"/>
<text text-anchor="middle" x="302.6877" y="-225.3" font-family="Times,serif" font-size="14.00" fill="#000000">ApplicationRecord</text>
</g>
<!-- Category -->
<g id="node3" class="node">
<title>Category</title>
<path fill="none" stroke="#000000" d="M409.8254,-186.5C409.8254,-186.5 633.55,-186.5 633.55,-186.5 639.55,-186.5 645.55,-192.5 645.55,-198.5 645.55,-198.5 645.55,-260.5 645.55,-260.5 645.55,-266.5 639.55,-272.5 633.55,-272.5 633.55,-272.5 409.8254,-272.5 409.8254,-272.5 403.8254,-272.5 397.8254,-266.5 397.8254,-260.5 397.8254,-260.5 397.8254,-198.5 397.8254,-198.5 397.8254,-192.5 403.8254,-186.5 409.8254,-186.5"/>
<text text-anchor="middle" x="521.6877" y="-257.3" font-family="Times,serif" font-size="14.00" fill="#000000">Category</text>
<polyline fill="none" stroke="#000000" points="397.8254,-250.5 645.55,-250.5 "/>
<text text-anchor="start" x="405.8254" y="-235.3" font-family="Times,serif" font-size="14.00" fill="#000000">id :bigint</text>
<text text-anchor="start" x="405.8254" y="-221.3" font-family="Times,serif" font-size="14.00" fill="#000000">name :character varying</text>
<text text-anchor="start" x="405.8254" y="-207.3" font-family="Times,serif" font-size="14.00" fill="#000000">created_at :timestamp without time zone</text>
<text text-anchor="start" x="405.8254" y="-193.3" font-family="Times,serif" font-size="14.00" fill="#000000">updated_at :timestamp without time zone</text>
</g>
<!-- Item -->
<g id="node4" class="node">
<title>Item</title>
<path fill="none" stroke="#000000" d="M542.8254,-.5C542.8254,-.5 766.55,-.5 766.55,-.5 772.55,-.5 778.55,-6.5 778.55,-12.5 778.55,-12.5 778.55,-130.5 778.55,-130.5 778.55,-136.5 772.55,-142.5 766.55,-142.5 766.55,-142.5 542.8254,-142.5 542.8254,-142.5 536.8254,-142.5 530.8254,-136.5 530.8254,-130.5 530.8254,-130.5 530.8254,-12.5 530.8254,-12.5 530.8254,-6.5 536.8254,-.5 542.8254,-.5"/>
<text text-anchor="middle" x="654.6877" y="-127.3" font-family="Times,serif" font-size="14.00" fill="#000000">Item</text>
<polyline fill="none" stroke="#000000" points="530.8254,-120.5 778.55,-120.5 "/>
<text text-anchor="start" x="538.8254" y="-105.3" font-family="Times,serif" font-size="14.00" fill="#000000">category_id :bigint</text>
<text text-anchor="start" x="538.8254" y="-91.3" font-family="Times,serif" font-size="14.00" fill="#000000">serial :integer</text>
<text text-anchor="start" x="538.8254" y="-77.3" font-family="Times,serif" font-size="14.00" fill="#000000">size :integer</text>
<text text-anchor="start" x="538.8254" y="-63.3" font-family="Times,serif" font-size="14.00" fill="#000000">description :text</text>
<text text-anchor="start" x="538.8254" y="-49.3" font-family="Times,serif" font-size="14.00" fill="#000000">created_at :timestamp without time zone</text>
<text text-anchor="start" x="538.8254" y="-35.3" font-family="Times,serif" font-size="14.00" fill="#000000">updated_at :timestamp without time zone</text>
<text text-anchor="start" x="538.8254" y="-21.3" font-family="Times,serif" font-size="14.00" fill="#000000">user_id :bigint</text>
<text text-anchor="start" x="538.8254" y="-7.3" font-family="Times,serif" font-size="14.00" fill="#000000">id :bigint</text>
</g>
<!-- Category&#45;&gt;Item -->
<g id="edge1" class="edge">
<title>Category&#45;&gt;Item</title>
<path fill="none" stroke="#a97be4" d="M563.1925,-180.1936C571.191,-170.6917 579.7541,-160.519 588.3144,-150.3496"/>
<ellipse fill="none" stroke="#a97be4" cx="560.6065" cy="-183.2656" rx="4" ry="4"/>
<polygon fill="#a97be4" stroke="#a97be4" points="588.4106,-150.2352 598.2932,-145.4828 591.6306,-146.41 594.8505,-142.5848 594.8505,-142.5848 594.8505,-142.5848 591.6306,-146.41 591.4078,-139.6869 588.4106,-150.2352 588.4106,-150.2352"/>
</g>
<!-- User -->
<g id="node5" class="node">
<title>User</title>
<path fill="none" stroke="#000000" d="M675.8254,-179.5C675.8254,-179.5 899.55,-179.5 899.55,-179.5 905.55,-179.5 911.55,-185.5 911.55,-191.5 911.55,-191.5 911.55,-267.5 911.55,-267.5 911.55,-273.5 905.55,-279.5 899.55,-279.5 899.55,-279.5 675.8254,-279.5 675.8254,-279.5 669.8254,-279.5 663.8254,-273.5 663.8254,-267.5 663.8254,-267.5 663.8254,-191.5 663.8254,-191.5 663.8254,-185.5 669.8254,-179.5 675.8254,-179.5"/>
<text text-anchor="middle" x="787.6877" y="-264.3" font-family="Times,serif" font-size="14.00" fill="#000000">User</text>
<polyline fill="none" stroke="#000000" points="663.8254,-257.5 911.55,-257.5 "/>
<text text-anchor="start" x="671.8254" y="-242.3" font-family="Times,serif" font-size="14.00" fill="#000000">id :bigint</text>
<text text-anchor="start" x="671.8254" y="-228.3" font-family="Times,serif" font-size="14.00" fill="#000000">name :character varying</text>
<text text-anchor="start" x="671.8254" y="-214.3" font-family="Times,serif" font-size="14.00" fill="#000000">email :character varying</text>
<text text-anchor="start" x="671.8254" y="-200.3" font-family="Times,serif" font-size="14.00" fill="#000000">created_at :timestamp without time zone</text>
<text text-anchor="start" x="671.8254" y="-186.3" font-family="Times,serif" font-size="14.00" fill="#000000">updated_at :timestamp without time zone</text>
</g>
<!-- User&#45;&gt;Item -->
<g id="edge2" class="edge">
<title>User&#45;&gt;Item</title>
<path fill="none" stroke="#beec5a" d="M739.9234,-172.7574C733.909,-165.6125 727.672,-158.2031 721.4321,-150.7903"/>
<ellipse fill="none" stroke="#beec5a" cx="742.6641" cy="-176.0132" rx="4" ry="4"/>
<polygon fill="#beec5a" stroke="#beec5a" points="721.1103,-150.408 718.1131,-139.8597 717.8904,-146.5828 714.6704,-142.7576 714.6704,-142.7576 714.6704,-142.7576 717.8904,-146.5828 711.2278,-145.6556 721.1103,-150.408 721.1103,-150.408"/>
</g>
</g>
</svg>
